<svg height="100" width="100" xmlns="http://www.w3.org/2000/svg"><path d="m50.048828 9.5097656a4.725134 2.5930375 0 0 0 -3.390625.7597654l-45.2753905 24.845703a4.725134 2.5930375 0 0 0 0 3.667969l45.2753905 24.845703a4.725134 2.5930375 0 0 0 6.683594 0l45.275391-24.845703a4.725134 2.5930375 0 0 0 0-3.667969l-45.275391-24.845703a4.725134 2.5930375 0 0 0 -3.292969-.7597654zm-45.3222655 36.8222654-3.34375 1.833985a4.725134 2.5930375 0 0 0 0 3.667968l45.2753905 24.845704a4.725134 2.5930375 0 0 0 6.683594 0l45.275391-24.845704a4.725134 2.5930375 0 0 0 -.001954-3.667968l-3.341796-1.833985-6.683594 3.666016.003906.001953-38.59375 21.179688-38.595703-21.179688.003906-.001953zm0 13.050781-3.34375 1.833985a4.725134 2.5930375 0 0 0 0 3.667969l45.2753905 24.845703a4.725134 2.5930375 0 0 0 6.683594 0l45.275391-24.845703a4.725134 2.5930375 0 0 0 -.001954-3.667969l-3.341796-1.833985-6.683594 3.666016.003906.001953-38.59375 21.179688-38.595703-21.179688.003906-.001953z" fill="#000080"/></svg>